<?xml version="1.0" encoding="UTF-8"?>
<svg width="82px" height="72px" viewBox="0 0 82 72" version="1.1" xmlns="http://www.w3.org/2000/svg" xmlns:xlink="http://www.w3.org/1999/xlink">
    <!-- Generator: Sketch 56.3 (81716) - https://sketch.com -->
    <title>icons8-guarantee</title>
    <desc>Created with Sketch.</desc>
    <g id="Page-1" stroke="none" stroke-width="1" fill="none" fill-rule="evenodd">
        <g id="icons8-guarantee" fill-rule="nonzero">
            <path d="M78.215,42.71 C79.35,40.555 80,38.105 80,35.5 C80,28.879 75.841,23.243 69.999,21.022 C69.999,21.015 70,21.008 70,21 C70,9.402 60.598,0 49,0 C39.216,0 31.019,6.701 28.687,15.757 C27.211,15.272 25.638,15 24,15 C16.308,15 9.977,20.793 9.11,28.252 C3.906,29.353 0,33.969 0,39.5 C0,45.851 5.149,51 11.5,51 C11.677,51 11.852,50.988 12.026,50.978 C12.022,51.153 12,51.324 12,51.5 C12,62.822 21.178,72 32.5,72 C38.937,72 44.675,69.028 48.434,64.386 C50.612,66.611 53.64,68 57,68 C61.65,68 65.674,65.35 67.666,61.482 C68.718,61.817 69.837,62 71,62 C77.075,62 82,57.075 82,51 C82,47.689 80.53,44.727 78.215,42.71 Z" id="Path" fill="#C7EDE6"></path>
            <path d="M64.5,45.5 L64.5,46 L67.5,46 L67.5,45.5 C67.5,45.5 71.742,45.5 73,45.5 C75.485,45.5 77.5,43.485 77.5,41 C77.5,38.667 75.718,36.771 73.445,36.545 C73.467,36.364 73.5,36.187 73.5,36 C73.5,33.515 71.485,31.5 69,31.5 C67.562,31.5 66.297,32.186 65.473,33.236 C65.333,30.6 63.171,28.5 60.5,28.5 C57.739,28.5 55.5,30.739 55.5,33.5 C55.5,33.946 55.577,34.37 55.687,34.782 C55.045,34.005 54.086,33.5 53,33.5 C51.219,33.5 49.766,34.835 49.545,36.555 C49.364,36.533 49.187,36.5 49,36.5 C46.515,36.5 44.5,38.515 44.5,41 C44.5,43.485 46.515,45.5 49,45.5 C51.485,45.5 58.5,45.5 58.5,45.5 L64.5,45.5 Z" id="Path" fill="#FDFCEF"></path>
            <path d="M60.5,28 C57.467,28 55,30.467 55,33.5 C55,33.516 55,33.531 55,33.547 C54.398,33.192 53.71,33 53,33 C51.169,33 49.589,34.261 49.142,36.005 C49.095,36.002 49.048,36 49,36 C46.243,36 44,38.243 44,41 C44,43.757 46.243,46 49,46 L64.5,46 C64.776,46 65,45.776 65,45.5 C65,45.224 64.776,45 64.5,45 L49,45 C46.794,45 45,43.206 45,41 C45,38.794 46.794,37 49,37 C49.117,37 49.23,37.017 49.343,37.032 L49.484,37.051 C49.505,37.054 49.525,37.055 49.546,37.055 C49.792,37.055 50.008,36.87 50.041,36.618 C50.232,35.125 51.504,34 53,34 C53.885,34 54.723,34.401 55.301,35.1 C55.399,35.218 55.542,35.282 55.687,35.282 C55.765,35.282 55.843,35.264 55.915,35.226 C56.124,35.119 56.229,34.88 56.169,34.653 C56.054,34.218 56,33.852 56,33.5 C56,31.019 58.019,29 60.5,29 C62.881,29 64.847,30.872 64.974,33.263 C64.985,33.471 65.124,33.65 65.323,33.713 C65.373,33.729 65.424,33.737 65.475,33.737 C65.625,33.737 65.771,33.668 65.867,33.545 C66.638,32.563 67.779,32 69,32 C71.206,32 73,33.794 73,36 C73,36.117 72.983,36.23 72.968,36.343 L72.949,36.484 C72.933,36.618 72.971,36.752 73.055,36.857 C73.139,36.962 73.262,37.029 73.395,37.042 C75.451,37.247 77,38.949 77,41 C77,43.206 75.206,45 73,45 L67.5,45 C67.224,45 67,45.224 67,45.5 C67,45.776 67.224,46 67.5,46 L73,46 C75.757,46 78,43.757 78,41 C78,38.603 76.311,36.587 73.997,36.123 C73.999,36.082 74,36.041 74,36 C74,33.243 71.757,31 69,31 C67.824,31 66.707,31.416 65.817,32.164 C65.219,29.76 63.055,28 60.5,28 L60.5,28 Z" id="Path" fill="#472B29"></path>
            <path d="M59,35 C57.597,35 56.391,35.999 56.087,37.341 C55.72,37.119 55.301,37 54.875,37 C53.673,37 52.677,37.897 52.522,39.068 C52.319,39.022 52.126,39 51.937,39 C50.408,39 49.126,40.2 49.019,41.732 C49.01,41.87 49.114,41.99 49.251,42 C49.257,42 49.263,42 49.269,42 C49.399,42 49.509,41.899 49.518,41.768 C49.607,40.497 50.669,39.5 51.937,39.5 C52.166,39.5 52.407,39.542 52.675,39.627 C52.697,39.634 52.72,39.637 52.742,39.637 C52.797,39.637 52.852,39.617 52.898,39.583 C52.962,39.537 53,39.455 53,39.375 C53,38.341 53.841,37.5 54.875,37.5 C55.322,37.5 55.76,37.668 56.106,37.973 C56.153,38.014 56.212,38.036 56.271,38.036 C56.303,38.036 56.334,38.03 56.364,38.017 C56.452,37.982 56.512,37.9 56.519,37.805 C56.623,36.512 57.712,35.5 59,35.5 C59.208,35.5 59.425,35.534 59.682,35.607 C59.705,35.614 59.729,35.617 59.752,35.617 C59.861,35.617 59.959,35.544 59.991,35.435 C60.029,35.302 59.952,35.164 59.819,35.126 C59.517,35.04 59.256,35 59,35 L59,35 Z M72.883,36.5 C71.557,36.5 70.375,37.397 70.009,38.682 C69.971,38.815 70.048,38.953 70.181,38.991 C70.205,38.997 70.228,39 70.25,39 C70.359,39 70.459,38.928 70.49,38.818 C70.795,37.748 71.779,37 72.883,37 C73,37 73.113,37.014 73.225,37.029 C73.237,37.031 73.248,37.032 73.26,37.032 C73.381,37.032 73.489,36.94 73.506,36.815 C73.525,36.678 73.429,36.552 73.292,36.534 C73.158,36.516 73.022,36.5 72.883,36.5 L72.883,36.5 Z" id="Shape" fill="#472B29"></path>
            <path d="M13.5,48 L3.5,48 C3.224,48 3,47.776 3,47.5 C3,47.224 3.224,47 3.5,47 L13.5,47 C13.776,47 14,47.224 14,47.5 C14,47.776 13.777,48 13.5,48 Z M16.5,48 L15.5,48 C15.224,48 15,47.776 15,47.5 C15,47.224 15.224,47 15.5,47 L16.5,47 C16.776,47 17,47.224 17,47.5 C17,47.776 16.777,48 16.5,48 Z M21.491,50 L12.5,50 C12.224,50 12,49.776 12,49.5 C12,49.224 12.224,49 12.5,49 L21.491,49 C21.767,49 21.991,49.224 21.991,49.5 C21.991,49.776 21.767,50 21.491,50 Z M10.5,50 L9.5,50 C9.224,50 9,49.776 9,49.5 C9,49.224 9.224,49 9.5,49 L10.5,49 C10.776,49 11,49.224 11,49.5 C11,49.776 10.777,50 10.5,50 Z M7.5,50 L5.5,50 C5.224,50 5,49.776 5,49.5 C5,49.224 5.224,49 5.5,49 L7.5,49 C7.776,49 8,49.224 8,49.5 C8,49.776 7.777,50 7.5,50 Z M13.5,52 L11.5,52 C11.224,52 11,51.776 11,51.5 C11,51.224 11.224,51 11.5,51 L13.5,51 C13.776,51 14,51.224 14,51.5 C14,51.776 13.776,52 13.5,52 Z M16.5,43 C16.323,43 15.677,43 15.5,43 C15.224,43 15,43.224 15,43.5 C15,43.776 15.224,44 15.5,44 C15.677,44 16.323,44 16.5,44 C16.776,44 17,43.776 17,43.5 C17,43.224 16.776,43 16.5,43 Z M16.5,45 C16.323,45 11.677,45 11.5,45 C11.224,45 11,45.224 11,45.5 C11,45.776 11.224,46 11.5,46 C11.677,46 16.323,46 16.5,46 C16.776,46 17,45.776 17,45.5 C17,45.224 16.776,45 16.5,45 Z M21.5,47 C21.323,47 18.677,47 18.5,47 C18.224,47 18,47.224 18,47.5 C18,47.776 18.224,48 18.5,48 C18.677,48 21.323,48 21.5,48 C21.776,48 22,47.776 22,47.5 C22,47.224 21.776,47 21.5,47 Z" id="Shape" fill="#FFFFFF"></path>
            <path d="M60.5,7 L50.5,7 C50.224,7 50,6.776 50,6.5 C50,6.224 50.224,6 50.5,6 L60.5,6 C60.776,6 61,6.224 61,6.5 C61,6.776 60.776,7 60.5,7 Z M64.5,7 L62.5,7 C62.224,7 62,6.776 62,6.5 C62,6.224 62.224,6 62.5,6 L64.5,6 C64.776,6 65,6.224 65,6.5 C65,6.776 64.776,7 64.5,7 Z M69.5,9 L59.5,9 C59.224,9 59,8.776 59,8.5 C59,8.224 59.224,8 59.5,8 L69.5,8 C69.776,8 70,8.224 70,8.5 C70,8.776 69.777,9 69.5,9 Z M57.5,9 L56.5,9 C56.224,9 56,8.776 56,8.5 C56,8.224 56.224,8 56.5,8 L57.5,8 C57.776,8 58,8.224 58,8.5 C58,8.776 57.776,9 57.5,9 Z M54.47,9 L52.5,9 C52.224,9 52,8.776 52,8.5 C52,8.224 52.224,8 52.5,8 L54.47,8 C54.746,8 54.97,8.224 54.97,8.5 C54.97,8.776 54.746,9 54.47,9 Z M63.5,5 L58.5,5 C58.224,5 58,4.776 58,4.5 C58,4.224 58.224,4 58.5,4 L63.5,4 C63.776,4 64,4.224 64,4.5 C64,4.776 63.777,5 63.5,5 Z M60.5,11 L58.5,11 C58.224,11 58,10.776 58,10.5 C58,10.224 58.224,10 58.5,10 L60.5,10 C60.776,10 61,10.224 61,10.5 C61,10.776 60.776,11 60.5,11 Z" id="Shape" fill="#FFFFFF"></path>
            <g id="Group" transform="translate(23.000000, 12.000000)">
                <polygon id="Path" fill="#78A0CF" points="11.41 51.057 7.788 45.559 1.175 46.871 9.258 27.108 19.492 31.294"></polygon>
                <path d="M11.555,52.55 L7.462,46.338 L0.034,47.811 L8.874,26.196 L20.404,30.912 L11.555,52.55 Z M8.114,44.781 L11.264,49.563 L18.579,31.676 L9.641,28.021 L2.316,45.931 L8.114,44.781 Z" id="Shape" fill="#472B29"></path>
                <polygon id="Path" fill="#78A0CF" points="28.59 51.057 32.212 45.559 38.825 46.871 30.742 27.108 20.508 31.294"></polygon>
                <path d="M28.445,52.55 L19.595,30.911 L31.125,26.195 L39.965,47.81 L32.537,46.337 L28.445,52.55 Z M21.421,31.677 L28.736,49.564 L31.886,44.782 L37.684,45.932 L30.359,28.022 L21.421,31.677 Z" id="Shape" fill="#472B29"></path>
                <path d="M23.417,37.248 C23.122,37.248 22.836,37.183 22.569,37.054 L21.459,36.516 C21.006,36.297 20.502,36.181 20,36.181 C19.498,36.181 18.994,36.297 18.542,36.516 L17.431,37.054 C17.164,37.183 16.879,37.248 16.584,37.248 C16.008,37.248 15.464,36.996 15.093,36.557 L14.297,35.615 C13.66,34.859 12.728,34.427 11.741,34.427 C11.741,34.427 10.397,34.468 10.396,34.468 C9.474,34.468 8.705,33.89 8.465,33.062 L8.121,31.877 C7.834,30.889 7.122,30.098 6.169,29.709 L5.026,29.243 C4.201,28.907 3.71,28.055 3.831,27.174 L3.999,25.951 C4.139,24.93 3.81,23.919 3.097,23.177 L2.243,22.286 C1.626,21.643 1.523,20.666 1.993,19.909 L2.644,18.86 C3.187,17.985 3.298,16.927 2.949,15.959 L2.531,14.799 C2.229,13.961 2.532,13.026 3.269,12.526 L4.29,11.833 C5.142,11.254 5.673,10.333 5.748,9.306 L5.838,8.076 C5.902,7.188 6.56,6.458 7.437,6.301 L8.651,6.083 C9.665,5.899 10.526,5.274 11.011,4.367 L11.594,3.279 C11.934,2.645 12.593,2.251 13.312,2.251 C13.468,2.251 13.625,2.271 13.778,2.308 L14.975,2.603 C15.237,2.667 15.506,2.7 15.775,2.7 C16.515,2.7 17.244,2.451 17.829,1.997 L18.804,1.24 C19.149,0.972 19.562,0.831 19.999,0.831 C20.436,0.831 20.849,0.973 21.194,1.24 L22.169,1.997 C22.754,2.451 23.483,2.7 24.223,2.7 C24.492,2.7 24.761,2.668 25.023,2.603 L26.221,2.308 C26.374,2.271 26.531,2.251 26.687,2.251 C27.406,2.251 28.065,2.646 28.405,3.28 L28.987,4.367 C29.473,5.274 30.333,5.899 31.347,6.082 L32.562,6.301 C33.439,6.458 34.097,7.189 34.161,8.076 L34.251,9.306 C34.326,10.333 34.858,11.254 35.709,11.833 L36.73,12.526 C37.467,13.026 37.771,13.962 37.469,14.799 L37.051,15.959 C36.702,16.928 36.813,17.985 37.356,18.86 L38.007,19.909 C38.476,20.666 38.374,21.643 37.757,22.286 L36.903,23.177 C36.191,23.919 35.861,24.931 36.002,25.95 L36.17,27.174 C36.291,28.056 35.799,28.907 34.975,29.243 L33.832,29.709 C32.878,30.098 32.167,30.889 31.88,31.877 L31.536,33.062 C31.296,33.89 30.526,34.469 29.664,34.469 L28.26,34.427 C27.273,34.427 26.341,34.86 25.703,35.615 L24.908,36.556 C24.537,36.996 23.993,37.248 23.417,37.248 Z" id="Path" fill="#FBCD59"></path>
                <path d="M20,1.527 C20.28,1.527 20.545,1.618 20.766,1.79 L21.74,2.546 C22.447,3.094 23.329,3.397 24.223,3.397 C24.548,3.397 24.874,3.357 25.19,3.28 L26.388,2.985 C26.486,2.961 26.587,2.949 26.687,2.949 C27.148,2.949 27.57,3.201 27.788,3.608 L28.371,4.696 C28.959,5.793 29.999,6.549 31.224,6.769 L32.439,6.987 C33.001,7.088 33.422,7.556 33.464,8.126 L33.554,9.356 C33.645,10.598 34.287,11.711 35.318,12.411 L36.339,13.104 C36.811,13.425 37.006,14.024 36.812,14.561 L36.394,15.722 C35.972,16.893 36.106,18.172 36.763,19.23 L37.413,20.278 C37.714,20.763 37.648,21.39 37.253,21.802 L36.399,22.692 C35.537,23.59 35.139,24.813 35.309,26.046 L35.477,27.269 C35.555,27.834 35.24,28.38 34.711,28.596 L33.569,29.062 C32.416,29.532 31.556,30.487 31.209,31.683 L30.865,32.868 C30.711,33.398 30.219,33.768 29.628,33.768 C29.628,33.768 29.627,33.768 29.627,33.768 L28.393,33.728 L28.266,33.726 C27.071,33.726 25.943,34.25 25.172,35.163 L24.376,36.105 C24.138,36.387 23.79,36.548 23.421,36.548 C23.232,36.548 23.049,36.506 22.878,36.423 L21.767,35.886 C21.22,35.621 20.611,35.482 20.004,35.482 C19.397,35.482 18.787,35.622 18.241,35.886 L17.13,36.423 C16.959,36.506 16.776,36.548 16.587,36.548 C16.218,36.548 15.87,36.386 15.631,36.105 L14.835,35.163 C14.064,34.25 12.936,33.726 11.741,33.726 L11.613,33.728 L10.341,33.769 C9.789,33.769 9.295,33.398 9.141,32.868 L8.797,31.683 C8.45,30.487 7.59,29.532 6.437,29.062 L5.295,28.596 C4.766,28.38 4.451,27.835 4.529,27.269 L4.697,26.046 C4.866,24.813 4.469,23.59 3.607,22.692 L2.753,21.802 C2.358,21.39 2.292,20.763 2.593,20.278 L3.244,19.23 C3.9,18.172 4.035,16.894 3.613,15.722 L3.195,14.561 C3.001,14.024 3.196,13.425 3.668,13.104 L4.689,12.411 C5.719,11.711 6.361,10.598 6.452,9.356 L6.542,8.126 C6.584,7.557 7.005,7.088 7.567,6.987 L8.781,6.769 C10.006,6.549 11.046,5.793 11.635,4.696 L12.218,3.608 C12.436,3.201 12.858,2.949 13.319,2.949 C13.419,2.949 13.52,2.961 13.618,2.985 L14.816,3.28 C15.132,3.358 15.458,3.397 15.783,3.397 C16.678,3.397 17.56,3.095 18.266,2.546 L19.241,1.79 C19.455,1.618 19.72,1.527 20,1.527 L20,1.527 Z M20,0.127 C19.427,0.127 18.854,0.313 18.376,0.684 L17.401,1.44 C16.932,1.804 16.359,1.997 15.776,1.997 C15.565,1.997 15.353,1.972 15.143,1.92 L13.945,1.625 C13.734,1.573 13.522,1.548 13.312,1.548 C12.353,1.548 11.446,2.071 10.977,2.946 L10.394,4.034 C10.012,4.747 9.324,5.247 8.527,5.39 L7.313,5.608 C6.122,5.822 5.227,6.816 5.139,8.023 L5.049,9.253 C4.99,10.06 4.565,10.796 3.895,11.252 L2.874,11.945 C1.873,12.625 1.46,13.897 1.87,15.035 L2.288,16.196 C2.562,16.958 2.474,17.803 2.047,18.491 L1.397,19.539 C0.759,20.567 0.899,21.897 1.737,22.77 L2.591,23.66 C3.152,24.244 3.414,25.053 3.304,25.854 L3.136,27.077 C2.971,28.276 3.64,29.433 4.76,29.89 L5.902,30.356 C6.652,30.662 7.22,31.294 7.446,32.071 L7.79,33.256 C8.119,34.391 9.159,35.167 10.334,35.167 C10.362,35.167 10.39,35.167 10.418,35.166 L11.651,35.126 C11.679,35.125 11.707,35.125 11.734,35.125 C12.513,35.125 13.254,35.468 13.759,36.065 L14.555,37.007 C15.071,37.618 15.818,37.947 16.58,37.947 C16.97,37.947 17.364,37.861 17.733,37.682 L18.844,37.145 C19.208,36.969 19.603,36.881 19.998,36.881 C20.393,36.881 20.787,36.969 21.152,37.145 L22.263,37.682 C22.632,37.861 23.026,37.947 23.416,37.947 C24.178,37.947 24.925,37.618 25.441,37.007 L26.237,36.065 C26.741,35.468 27.483,35.125 28.262,35.125 C28.29,35.125 28.317,35.125 28.345,35.126 L29.578,35.166 C29.606,35.167 29.634,35.167 29.662,35.167 C30.837,35.167 31.877,34.391 32.206,33.256 L32.55,32.071 C32.776,31.294 33.344,30.662 34.094,30.356 L35.236,29.89 C36.356,29.433 37.025,28.275 36.86,27.077 L36.692,25.854 C36.582,25.052 36.845,24.244 37.405,23.66 L38.259,22.77 C39.097,21.897 39.237,20.567 38.599,19.539 L37.949,18.491 C37.522,17.803 37.433,16.958 37.708,16.196 L38.126,15.035 C38.536,13.897 38.123,12.625 37.122,11.945 L36.101,11.252 C35.431,10.797 35.006,10.061 34.947,9.253 L34.857,8.023 C34.769,6.816 33.874,5.822 32.683,5.608 L31.469,5.39 C30.672,5.247 29.984,4.747 29.602,4.034 L29.019,2.946 C28.55,2.071 27.644,1.548 26.684,1.548 C26.474,1.548 26.262,1.573 26.051,1.625 L24.853,1.92 C24.644,1.971 24.432,1.997 24.22,1.997 C23.638,1.997 23.065,1.805 22.595,1.44 L21.62,0.684 C21.146,0.313 20.573,0.127 20,0.127 L20,0.127 Z" id="Shape" fill="#472B29"></path>
                <path d="M33.492,15.692 C33.278,15.692 33.08,15.554 33.014,15.338 C32.953,15.141 32.889,14.944 32.819,14.752 C32.549,14 32.21,13.268 31.81,12.576 C31.671,12.338 31.753,12.031 31.992,11.893 C32.231,11.752 32.537,11.836 32.675,12.076 C33.105,12.819 33.47,13.605 33.76,14.414 C33.834,14.622 33.904,14.832 33.969,15.045 C34.05,15.309 33.902,15.588 33.638,15.669 C33.589,15.686 33.54,15.692 33.492,15.692 Z M6.18,16.678 C6.144,16.678 6.108,16.674 6.072,16.666 C5.802,16.606 5.632,16.34 5.692,16.069 C7.159,9.436 13.176,4.62 20,4.62 C24.192,4.62 28.192,6.417 30.975,9.55 C31.185,9.786 31.388,10.03 31.583,10.281 C31.752,10.499 31.713,10.813 31.495,10.982 C31.276,11.154 30.962,11.112 30.793,10.894 C30.612,10.661 30.423,10.434 30.228,10.213 C27.634,7.295 23.907,5.62 20,5.62 C13.642,5.62 8.035,10.105 6.668,16.286 C6.616,16.519 6.41,16.678 6.18,16.678 Z M20,33.838 C12.856,33.838 6.786,28.753 5.565,21.747 C5.518,21.475 5.7,21.216 5.972,21.169 C6.25,21.114 6.503,21.303 6.551,21.575 C7.688,28.101 13.344,32.838 20.001,32.838 C27.529,32.838 33.653,26.734 33.653,19.23 C33.653,18.547 33.602,17.861 33.5,17.188 C33.459,16.916 33.647,16.661 33.92,16.62 C34.198,16.576 34.448,16.767 34.489,17.04 C34.597,17.762 34.653,18.498 34.653,19.23 C34.652,27.284 28.079,33.838 20,33.838 Z M34.738,43.782 C34.639,43.782 34.546,43.723 34.506,43.626 L33.605,41.395 C33.553,41.267 33.615,41.122 33.743,41.07 C33.87,41.014 34.016,41.078 34.069,41.208 L34.97,43.439 C35.022,43.567 34.96,43.712 34.832,43.764 C34.801,43.776 34.769,43.782 34.738,43.782 Z" id="Shape" fill="#472B29"></path>
                <path d="M33.18,39.923 C33.081,39.923 32.988,39.864 32.948,39.767 L30.873,34.627 C30.821,34.499 30.883,34.354 31.011,34.302 C31.137,34.247 31.284,34.311 31.337,34.44 L33.412,39.58 C33.464,39.708 33.402,39.853 33.274,39.905 C33.243,39.917 33.211,39.923 33.18,39.923 Z" id="Path" fill="#472B29"></path>
                <path d="M10.713,46.226 C10.68,46.226 10.647,46.219 10.615,46.206 C10.488,46.151 10.428,46.005 10.483,45.878 L11.424,43.663 C11.478,43.535 11.625,43.48 11.752,43.53 C11.879,43.585 11.939,43.731 11.884,43.858 L10.943,46.073 C10.902,46.169 10.81,46.226 10.713,46.226 Z" id="Path" fill="#472B29"></path>
                <path d="M12.341,42.395 C12.308,42.395 12.275,42.388 12.243,42.375 C12.116,42.32 12.056,42.174 12.111,42.047 L12.576,40.953 C12.63,40.825 12.777,40.77 12.904,40.82 C13.031,40.875 13.091,41.021 13.036,41.148 L12.571,42.242 C12.53,42.338 12.438,42.395 12.341,42.395 Z" id="Path" fill="#472B29"></path>
                <path d="M13.325,40.079 C13.292,40.079 13.259,40.072 13.227,40.059 C13.1,40.004 13.04,39.858 13.095,39.731 L14.278,36.946 C14.332,36.818 14.479,36.761 14.606,36.813 C14.733,36.868 14.793,37.014 14.738,37.141 L13.555,39.926 C13.514,40.022 13.422,40.079 13.325,40.079 Z" id="Path" fill="#472B29"></path>
            </g>
            <g id="Group" transform="translate(8.000000, 15.000000)">
                <path d="M7.5,13.5 C7.5,13.5 5.933,13.5 4,13.5 C2.067,13.5 0.5,11.933 0.5,10 C0.5,8.219 1.835,6.766 3.555,6.545 C3.527,6.366 3.5,6.187 3.5,6 C3.5,4.067 5.067,2.5 7,2.5 C8.032,2.5 8.95,2.955 9.59,3.665 C9.974,1.857 11.577,0.5 13.5,0.5 C15.709,0.5 17.5,2.291 17.5,4.5 C17.5,4.691 17.47,4.874 17.444,5.058 C17.872,4.714 18.408,4.5 19,4.5 C20.228,4.5 21.245,5.387 21.455,6.555 C21.634,6.527 21.813,6.5 22,6.5 C23.933,6.5 25.5,8.067 25.5,10 C25.5,11.933 23.933,13.5 22,13.5 C20.067,13.5 14.5,13.5 14.5,13.5 L14.5,14 L7.5,14 L7.5,13.5 Z" id="Path" fill="#FDFCEF"></path>
                <path d="M5.75,9 C5.888,9 6,8.888 6,8.75 C6,7.527 5.005,6.532 3.782,6.532 C3.748,6.541 3.045,6.531 2.538,6.668 C2.405,6.704 2.326,6.841 2.362,6.974 C2.398,7.108 2.535,7.187 2.668,7.15 C3.112,7.03 3.768,7.03 3.781,7.032 C4.729,7.032 5.5,7.803 5.5,8.75 C5.5,8.888 5.612,9 5.75,9 Z M12.5,13 C12.2238576,13 12,13.2238576 12,13.5 C12,13.7761424 12.2238576,14 12.5,14 C12.7761424,14 13,13.7761424 13,13.5 C13,13.2238576 12.7761424,13 12.5,13 Z" id="Shape" fill="#472B29"></path>
                <path d="M4,14 L7.5,14 C7.776,14 8,13.776 8,13.5 C8,13.224 7.776,13 7.5,13 L4,13 C2.346,13 1,11.654 1,10 C1,8.504 2.125,7.232 3.618,7.041 C3.752,7.023 3.873,6.953 3.954,6.845 C4.035,6.737 4.069,6.601 4.048,6.468 C4.025,6.314 4,6.16 4,6 C4,4.346 5.346,3 7,3 C7.85,3 8.638,3.355 9.219,4 C9.344,4.139 9.54,4.198 9.719,4.148 C9.901,4.099 10.04,3.953 10.079,3.769 C10.42,2.165 11.859,1 13.5,1 C15.43,1 17,2.57 17,4.5 C17,4.643 16.979,4.78 16.959,4.918 C16.93,5.121 17.022,5.356 17.201,5.458 C17.38,5.56 17.597,5.576 17.757,5.448 C18.122,5.155 18.551,5 19,5 C19.966,5 20.792,5.691 20.963,6.644 C21.011,6.911 21.259,7.09 21.532,7.049 C21.686,7.025 21.84,7 22,7 C23.654,7 25,8.346 25,10 C25,11.654 23.654,13 22,13 L14.5,13 C14.224,13 14,13.224 14,13.5 C14,13.776 14.224,14 14.5,14 L22,14 C24.206,14 26,12.206 26,10 C26,7.794 24.206,6 22,6 C21.941,6 21.884,6.002 21.826,6.006 C21.412,4.82 20.289,4 19,4 C18.651,4 18.311,4.061 17.989,4.18 C17.824,1.847 15.874,0 13.5,0 C11.669,0 10.034,1.127 9.347,2.774 C8.667,2.276 7.845,2 7,2 C4.794,2 3,3.794 3,6 C3,6.048 3.001,6.095 3.004,6.142 C1.261,6.59 0,8.169 0,10 C0,12.206 1.794,14 4,14 Z" id="Path" fill="#472B29"></path>
                <path d="M9.5,13 C9.659,13 10.341,13 10.5,13 C10.776,13 11,13.224 11,13.5 C11,13.776 10.776,14 10.5,14 C10.341,14 9.659,14 9.5,14 C9.224,14 9,13.776 9,13.5 C9,13.224 9.224,13 9.5,13 Z" id="Path" fill="#472B29"></path>
            </g>
            <g id="Group" transform="translate(37.000000, 26.000000)">
                <polygon id="Path" fill="#E0A825" points="5.49929369 0 7.19866444 3.62012154 11 4.20094531 8.24964685 7.02039163 8.89803519 11 5.49929369 9.12086428 2.1005522 11 2.75035315 7.02039163 0 4.20094531 3.79992295 3.62012154"></polygon>
                <path d="M9.40113341,11.9998448 C9.32195508,11.9998448 9.24419065,11.9805626 9.17066791,11.9390317 L5.99929305,10.1902826 L2.82791819,11.9390317 C2.66107814,12.0324763 2.46030452,12.0176438 2.30618956,11.9004672 C2.15490239,11.7832907 2.07855186,11.587502 2.10965763,11.3931965 L2.71622019,7.68804372 L0.149993984,5.06269526 C0.0142597058,4.92475323 -0.0338128511,4.71858179 0.024156997,4.53020933 C0.0821268451,4.34332012 0.236241807,4.20537808 0.424290339,4.17719638 L3.97034837,3.63729421 L5.55674275,0.265872153 C5.7221689,-0.088624051 6.2778311,-0.088624051 6.44325725,0.265872153 L8.02965163,3.63729421 L11.5757097,4.17719638 C11.7623443,4.20537808 11.9178732,4.34183687 11.975843,4.53020933 C12.0338129,4.71858179 11.9857403,4.92475323 11.850006,5.06269526 L9.28519371,7.68804372 L9.89034237,11.3931965 C9.92144814,11.587502 9.84651151,11.7847739 9.69381044,11.9004672 C9.60614872,11.9672134 9.50434801,11.9998448 9.40113341,11.9998448 Z M5.99929305,9.08526307 C6.07847138,9.08526307 6.15764971,9.10602853 6.22975854,9.14607622 L8.7436705,10.5329128 L8.26435882,7.59608236 C8.23608085,7.42847537 8.289809,7.25641863 8.4071626,7.13627557 L10.440349,5.05527902 L7.62951829,4.62662043 C7.46833384,4.60140522 7.32835786,4.49609464 7.25624903,4.34332012 L5.99787915,1.67050774 L4.73950928,4.34332012 C4.66740044,4.49757788 4.52883837,4.60288847 4.36624001,4.62662043 L1.55540933,5.05527902 L3.59000961,7.13627557 C3.7073632,7.25493539 3.75967745,7.42699212 3.73281338,7.59608236 L3.25208781,10.5329128 L5.76599976,9.14607622 C5.84093639,9.10602853 5.92011472,9.08526307 5.99929305,9.08526307 Z" id="Shape" fill="#472B29"></path>
            </g>
        </g>
    </g>
</svg>